<?xml version="1.0" encoding="utf-8"?>
<!-- Generator: Adobe Illustrator 15.0.0, SVG Export Plug-In . SVG Version: 6.00 Build 0)  -->
<!DOCTYPE svg PUBLIC "-//W3C//DTD SVG 1.1//EN" "http://www.w3.org/Graphics/SVG/1.1/DTD/svg11.dtd">
<svg version="1.1" id="Layer_1" xmlns="http://www.w3.org/2000/svg" xmlns:xlink="http://www.w3.org/1999/xlink" x="0px" y="0px"
	 width="661.5px" height="98.5px" viewBox="0 0 661.5 98.5" enable-background="new 0 0 661.5 98.5" xml:space="preserve">
<g>
	<path fill="#FFFFFF" d="M84.652,54.881v23.365h-11.46V19.53H92.36c5.784,0,10.324,1.527,13.62,4.58
		c3.295,3.054,4.943,7.298,4.943,12.732c0,3.067-0.686,5.71-2.058,7.93c-1.372,2.219-3.376,3.989-6.013,5.307
		c3.013,1.022,5.186,2.717,6.518,5.084c1.332,2.368,1.998,5.327,1.998,8.878v4.157c0,1.614,0.188,3.343,0.565,5.186
		c0.376,1.843,1.035,3.182,1.977,4.015v0.848h-11.864c-0.942-0.861-1.533-2.26-1.775-4.197s-0.363-3.915-0.363-5.932v-3.995
		c0-2.932-0.599-5.206-1.796-6.82c-1.197-1.614-2.913-2.421-5.145-2.421H84.652z M84.652,45.72h7.667
		c2.341,0,4.116-0.713,5.327-2.139c1.21-1.425,1.816-3.457,1.816-6.093c0-2.69-0.605-4.829-1.816-6.417
		c-1.211-1.587-2.973-2.381-5.287-2.381h-7.708V45.72z"/>
	<path fill="#FFFFFF" d="M134.241,79.094c-5.488,0-9.847-1.802-13.075-5.408c-3.229-3.605-4.842-8.152-4.842-13.64v-6.134
		c0-5.892,1.499-10.721,4.5-14.487c3-3.766,7.149-5.65,12.449-5.65c5.111,0,9.066,1.709,11.864,5.125
		c2.798,3.417,4.197,8.071,4.197,13.963v7.022h-21.59v0.161c0,2.879,0.652,5.246,1.957,7.103c1.305,1.856,3.275,2.785,5.912,2.785
		c2.152,0,3.9-0.242,5.246-0.727c1.345-0.484,2.946-1.292,4.802-2.421l2.905,7.304c-1.507,1.453-3.518,2.65-6.033,3.592
		C140.018,78.623,137.253,79.094,134.241,79.094z M133.272,42.936c-1.83,0-3.175,0.838-4.035,2.513
		c-0.861,1.676-1.346,3.932-1.453,6.769h10.291v-1.621c0-2.432-0.377-4.316-1.13-5.654
		C136.191,43.604,134.967,42.936,133.272,42.936z"/>
	<path fill="#FFFFFF" d="M172.045,66.826c0-1.237-0.484-2.307-1.453-3.208c-0.969-0.901-2.825-2.011-5.569-3.33
		c-4.386-1.641-7.675-3.497-9.867-5.569c-2.193-2.071-3.289-4.762-3.289-8.071c0-3.551,1.405-6.584,4.217-9.1
		c2.811-2.515,6.531-3.773,11.158-3.773c4.843,0,8.703,1.292,11.582,3.874c2.878,2.583,4.264,5.879,4.156,9.887l-0.121,0.242
		h-11.057c0-1.83-0.377-3.282-1.13-4.358c-0.753-1.076-1.911-1.614-3.47-1.614c-1.238,0-2.287,0.417-3.148,1.251
		c-0.861,0.834-1.292,1.843-1.292,3.027c0,1.291,0.43,2.334,1.292,3.127c0.861,0.793,2.73,1.876,5.609,3.249
		c4.573,1.561,7.963,3.41,10.169,5.549c2.206,2.139,3.309,4.943,3.309,8.414c0,3.712-1.48,6.753-4.439,9.12
		c-2.96,2.368-6.847,3.551-11.663,3.551c-5.031,0-9.013-1.466-11.945-4.399c-2.933-2.932-4.332-6.241-4.197-9.927l0.081-0.242
		h10.492c0.053,2.314,0.591,3.982,1.614,5.004c1.022,1.023,2.434,1.534,4.237,1.534c1.534,0,2.704-0.376,3.511-1.13
		C171.642,69.18,172.045,68.144,172.045,66.826z"/>
	<path fill="#FFFFFF" d="M185.435,53.75c0-5.864,1.553-10.66,4.661-14.386c3.107-3.726,7.459-5.589,13.055-5.589
		s9.954,1.863,13.075,5.589c3.121,3.727,4.681,8.522,4.681,14.386v5.408c0,5.919-1.561,10.721-4.681,14.407
		c-3.121,3.686-7.466,5.529-13.035,5.529c-5.623,0-9.988-1.843-13.095-5.529c-3.107-3.686-4.661-8.488-4.661-14.407V53.75z
		 M196.855,59.142c0,3.368,0.47,6.008,1.412,7.921c0.941,1.913,2.583,2.87,4.923,2.87c2.26,0,3.867-0.963,4.822-2.89
		c0.955-1.926,1.433-4.56,1.433-7.901v-5.416c0-3.287-0.478-5.907-1.433-7.861c-0.955-1.954-2.576-2.93-4.863-2.93
		s-3.908,0.984-4.863,2.95c-0.955,1.967-1.432,4.581-1.432,7.841V59.142z"/>
	<path fill="#FFFFFF" d="M236.879,78.246h-11.461V15.292h11.461V78.246z"/>
	<path fill="#FFFFFF" d="M264.958,73.202c-1.185,1.911-2.617,3.37-4.298,4.378c-1.682,1.009-3.585,1.514-5.71,1.514
		c-3.901,0-6.948-1.473-9.14-4.419c-2.193-2.946-3.289-7.512-3.289-13.701V34.582h11.461v26.503c0,3.098,0.376,5.347,1.13,6.747
		c0.753,1.401,1.87,2.101,3.349,2.101c1.265,0,2.374-0.235,3.33-0.707c0.955-0.472,1.769-1.165,2.441-2.081V34.582h11.501v43.664
		h-10.088L264.958,73.202z"/>
	<path fill="#FFFFFF" d="M294.53,23.727v10.855h6.053v8.313h-6.053v21.913c0,1.775,0.255,3.046,0.767,3.813
		c0.511,0.767,1.211,1.15,2.099,1.15c0.699,0,1.292-0.033,1.775-0.101c0.484-0.067,1.022-0.182,1.614-0.343l0.888,8.717
		c-1.211,0.376-2.368,0.646-3.471,0.807c-1.104,0.161-2.354,0.242-3.753,0.242c-3.686,0-6.504-1.136-8.455-3.41
		c-1.951-2.273-2.926-5.885-2.926-10.835V42.895h-5.165v-8.313h5.165V23.727H294.53z"/>
	<path fill="#FFFFFF" d="M321.963,79.094c-5.488,0-9.847-1.802-13.075-5.408c-3.229-3.605-4.842-8.152-4.842-13.64v-6.134
		c0-5.892,1.499-10.721,4.5-14.487c3-3.766,7.149-5.65,12.449-5.65c5.111,0,9.066,1.709,11.864,5.125
		c2.798,3.417,4.197,8.071,4.197,13.963v7.022h-21.59v0.161c0,2.879,0.652,5.246,1.957,7.103c1.305,1.856,3.275,2.785,5.912,2.785
		c2.152,0,3.9-0.242,5.246-0.727c1.345-0.484,2.946-1.292,4.802-2.421l2.905,7.304c-1.507,1.453-3.518,2.65-6.033,3.592
		C327.74,78.623,324.976,79.094,321.963,79.094z M320.995,42.936c-1.83,0-3.175,0.838-4.035,2.513
		c-0.861,1.676-1.346,3.932-1.453,6.769h10.291v-1.621c0-2.432-0.377-4.316-1.13-5.654
		C323.914,43.604,322.689,42.936,320.995,42.936z"/>
</g>
<g>
	<path fill="#FFFFFF" d="M361.632,78.246h-4.883V19.489h4.883V78.246z"/>
	<path fill="#FFFFFF" d="M376.717,34.582l0.404,7.224c1.156-2.556,2.697-4.533,4.621-5.932c1.923-1.398,4.177-2.099,6.759-2.099
		c3.9,0,6.894,1.447,8.979,4.338c2.084,2.892,3.127,7.392,3.127,13.499v26.634h-4.883V51.652c0-4.977-0.727-8.475-2.179-10.492
		c-1.453-2.018-3.565-3.027-6.336-3.027c-2.476,0-4.547,0.814-6.214,2.441c-1.668,1.628-2.919,3.8-3.753,6.518v31.154h-4.843V34.582
		H376.717z"/>
	<path fill="#FFFFFF" d="M413.755,34.582l0.404,7.224c1.156-2.556,2.697-4.533,4.621-5.932c1.923-1.398,4.177-2.099,6.759-2.099
		c3.9,0,6.894,1.447,8.979,4.338c2.084,2.892,3.127,7.392,3.127,13.499v26.634h-4.883V51.652c0-4.977-0.727-8.475-2.179-10.492
		c-1.453-2.018-3.565-3.027-6.336-3.027c-2.476,0-4.547,0.814-6.214,2.441c-1.668,1.628-2.919,3.8-3.753,6.518v31.154h-4.843V34.582
		H413.755z"/>
	<path fill="#FFFFFF" d="M444.457,53.226c0-5.65,1.453-10.304,4.358-13.963c2.906-3.658,6.806-5.488,11.703-5.488
		c4.896,0,8.804,1.823,11.723,5.468c2.919,3.646,4.379,8.307,4.379,13.983v6.417c0,5.73-1.453,10.405-4.358,14.023
		c-2.905,3.619-6.807,5.428-11.703,5.428c-4.923,0-8.838-1.809-11.744-5.428c-2.905-3.618-4.358-8.293-4.358-14.023V53.226z
		 M449.34,59.69c0,4.368,0.968,8.008,2.905,10.919c1.937,2.912,4.708,4.368,8.313,4.368c3.524,0,6.269-1.462,8.232-4.388
		c1.964-2.925,2.946-6.558,2.946-10.899v-6.431c0-4.287-0.982-7.893-2.946-10.819c-1.964-2.925-4.722-4.388-8.273-4.388
		c-3.578,0-6.336,1.463-8.273,4.388c-1.937,2.926-2.905,6.532-2.905,10.819V59.69z"/>
	<path fill="#FFFFFF" d="M493.763,67.229l0.968,4.237h0.242l1.05-4.237l9.362-32.647h4.964l-13.6,43.664h-3.794l-13.68-43.664h5.004
		L493.763,67.229z"/>
	<path fill="#FFFFFF" d="M537.459,78.246c-0.242-1.506-0.424-2.744-0.545-3.712c-0.121-0.969-0.182-1.951-0.182-2.946
		c-1.318,2.179-3.033,3.975-5.146,5.388c-2.112,1.412-4.459,2.119-7.042,2.119c-3.605,0-6.39-1.123-8.353-3.37
		c-1.965-2.246-2.946-5.28-2.946-9.1c0-4.062,1.426-7.297,4.277-9.706c2.852-2.407,6.712-3.612,11.582-3.612h7.627v-5.367
		c0-3.093-0.78-5.515-2.341-7.264c-1.561-1.749-3.739-2.623-6.537-2.623c-2.609,0-4.756,0.834-6.437,2.502
		c-1.682,1.668-2.522,3.712-2.522,6.134l-4.52-0.04l-0.081-0.242c-0.135-3.282,1.11-6.208,3.733-8.777
		c2.623-2.569,5.979-3.854,10.068-3.854c4.035,0,7.29,1.231,9.766,3.692c2.475,2.462,3.713,5.979,3.713,10.553v21.428
		c0,1.561,0.066,3.067,0.202,4.52c0.134,1.453,0.376,2.879,0.726,4.278H537.459z M525.15,74.735c2.69,0,5.078-0.773,7.163-2.32
		c2.085-1.547,3.558-3.518,4.419-5.912V57.06h-7.748c-3.309,0-5.952,0.936-7.93,2.805c-1.978,1.871-2.966,4.177-2.966,6.921
		c0,2.341,0.618,4.251,1.856,5.73C521.182,73.996,522.917,74.735,525.15,74.735z"/>
	<path fill="#FFFFFF" d="M557.709,23.444v11.138h7.587v4.116h-7.587v28.298c0,2.821,0.403,4.824,1.211,6.006
		c0.807,1.183,1.869,1.773,3.188,1.773c0.646,0,1.277-0.04,1.896-0.121c0.619-0.081,1.318-0.202,2.099-0.363l0.646,3.712
		c-0.646,0.323-1.486,0.585-2.521,0.787c-1.036,0.202-2.078,0.303-3.128,0.303c-2.583,0-4.607-0.967-6.073-2.903
		c-1.467-1.935-2.199-4.999-2.199-9.192V38.698h-6.054v-4.116h6.054V23.444H557.709z"/>
	<path fill="#FFFFFF" d="M577.757,22.153h-4.883v-6.86h4.883V22.153z M577.757,78.246h-4.883V34.582h4.883V78.246z"/>
	<path fill="#FFFFFF" d="M585.134,53.226c0-5.65,1.453-10.304,4.358-13.963c2.905-3.658,6.806-5.488,11.703-5.488
		c4.896,0,8.804,1.823,11.723,5.468c2.919,3.646,4.379,8.307,4.379,13.983v6.417c0,5.73-1.453,10.405-4.358,14.023
		c-2.905,3.619-6.807,5.428-11.703,5.428c-4.923,0-8.838-1.809-11.743-5.428c-2.905-3.618-4.358-8.293-4.358-14.023V53.226z
		 M590.017,59.69c0,4.368,0.969,8.008,2.905,10.919c1.938,2.912,4.708,4.368,8.313,4.368c3.524,0,6.269-1.462,8.232-4.388
		c1.964-2.925,2.946-6.558,2.946-10.899v-6.431c0-4.287-0.982-7.893-2.946-10.819c-1.964-2.925-4.722-4.388-8.272-4.388
		c-3.578,0-6.336,1.463-8.273,4.388c-1.937,2.926-2.905,6.532-2.905,10.819V59.69z"/>
	<path fill="#FFFFFF" d="M628.507,34.582l0.404,7.224c1.156-2.556,2.696-4.533,4.62-5.932c1.923-1.398,4.177-2.099,6.76-2.099
		c3.9,0,6.894,1.447,8.979,4.338c2.085,2.892,3.128,7.392,3.128,13.499v26.634h-4.883V51.652c0-4.977-0.727-8.475-2.18-10.492
		c-1.452-2.018-3.564-3.027-6.336-3.027c-2.476,0-4.547,0.814-6.214,2.441c-1.669,1.628-2.92,3.8-3.753,6.518v31.154h-4.843V34.582
		H628.507z"/>
</g>
<g>
	<circle fill="#FFFFFF" cx="19.323" cy="18.752" r="12.042"/>
	<circle fill="#FFFFFF" cx="44.106" cy="40.072" r="12.042"/>
	<line fill="#FFFFFF" stroke="#FFFFFF" stroke-width="6" stroke-miterlimit="10" x1="24.488" y1="21.917" x2="42.241" y2="39.67"/>
	<circle fill="#FFFFFF" cx="18.972" cy="59.752" r="12.042"/>
	<circle fill="#FFFFFF" cx="43.756" cy="81.072" r="12.042"/>
	<line fill="#FFFFFF" stroke="#FFFFFF" stroke-width="6" stroke-miterlimit="10" x1="24.137" y1="62.917" x2="41.89" y2="80.67"/>
</g>
<line fill="none" stroke="#FFFFFF" stroke-width="6" stroke-miterlimit="10" x1="42.416" y1="41.872" x2="20.644" y2="63.644"/>
</svg>
